<?xml version="1.0"?>
<svg width="512" height="512" xmlns="http://www.w3.org/2000/svg" xmlns:svg="http://www.w3.org/2000/svg">
 <g class="layer">
  <title>Layer 1</title>
  <g id="svg_3" transform="translate(-3.28 0) translate(496.667 128.889) matrix(1.43169 0 0 1.77822 -605.331 -329.639)">
   <path d="m209,256l0,2l-37,56l90,0l-38,-56l0,-2l32,-49l2,0l62,93l0,2l-57,0l8,12l71,0l-84,-128l-2,0l-38,60l-2,0l-39,-60l-2,0l-83,128l71,0l7,-12l-57,0l0,-2l62,-93l2,0l32,49zm134,46l0,2l7,10l72,0l-84,-127l-2,0l-35,52l0,2l6,8l2,0l28,-42l2,0l61,93l0,2l-57,0zm-150,0l0,-1l22,-34l2,0l23,34l0,1l-47,0z" data-name="Color Fill 2" fill="#faf7fb" fill-rule="evenodd" id="svg_1"/>
   <path d="m209,256l0,2l-37,56l90,0l-38,-56l0,-2l32,-49l2,0l62,93l0,2l-57,0l8,12l71,0l-84,-128l-2,0l-38,60l-2,0l-39,-60l-2,0l-83,128l71,0l7,-12l-57,0l0,-2l62,-93l2,0l32,49zm134,46l0,2l7,10l72,0l-84,-127l-2,0l-35,52l0,2l6,8l2,0l28,-42l2,0l61,93l0,2l-57,0zm-150,0l0,-1l22,-34l2,0l23,34l0,1l-47,0z" data-name="Color Fill 3" fill="#671073" fill-rule="evenodd" id="svg_2"/>
  </g>
 </g>
</svg>