<svg xmlns="http://www.w3.org/2000/svg" width="512" height="512"><path d="M209 256v2l-37 56h90l-38-56v-2l32-49h2l62 93v2h-57l8 12h71l-84-128h-2l-38 60h-2l-39-60h-2L92 314h71l7-12h-57v-2l62-93h2Zm134 46v2l7 10h72l-84-127h-2l-35 52v2l6 8h2l28-42h2l61 93v2h-57Zm-150 0v-1l22-34h2l23 34v1h-47Z" data-name="Color Fill 2" style="fill-rule:evenodd;fill:#faf7fb"/><path d="M209 256v2l-37 56h90l-38-56v-2l32-49h2l62 93v2h-57l8 12h71l-84-128h-2l-38 60h-2l-39-60h-2L92 314h71l7-12h-57v-2l62-93h2Zm134 46v2l7 10h72l-84-127h-2l-35 52v2l6 8h2l28-42h2l61 93v2h-57Zm-150 0v-1l22-34h2l23 34v1h-47Z" data-name="Color Fill 3" style="fill:#671073;fill-rule:evenodd"/></svg>
